<svg width="1928" height="1088" viewBox="0 0 1928 1088" fill="none" xmlns="http://www.w3.org/2000/svg">
<g clip-path="url(#clip0_3_18)" filter="url(#filter0_d_3_18)">
<rect width="1920" height="1080" transform="translate(4)" fill="url(#paint0_linear_3_18)"/>
<path d="M1440.74 656.41C1477.87 790.127 1257.12 1161.66 993.558 1161.66C729.993 1161.66 369.095 893.224 476.082 707.78C583.069 522.336 858.737 354.107 993.558 480.692C1128.38 607.277 1392.08 481.123 1440.74 656.41Z" fill="url(#paint1_radial_3_18)"/>
<path d="M1297.03 726.474C1287.16 911.953 1194.29 1011.35 993.118 1053.08C668.414 1099.11 559.342 940.423 608.714 811.316C658.087 682.208 804.78 534.427 900.276 605.513C995.773 676.599 1306.9 540.996 1297.03 726.474Z" fill="url(#paint2_radial_3_18)"/>
<path d="M838.279 912.76C719.194 1015.93 660.784 885.726 639.48 941.206C618.176 996.686 655.154 1136.53 961.537 1122.98C1267.92 1109.44 1406.31 727.926 1102.81 707.491C799.306 687.056 987.135 783.793 838.279 912.76Z" fill="#F6E5F0" fill-opacity="0.6"/>
<path d="M1283.04 615.526C1310.18 610.007 1295.11 579.883 1283.04 573.559C1270.97 567.235 1254.3 573.559 1249.12 591.955C1243.95 610.352 1249.12 622.425 1283.04 615.526Z" fill="white" fill-opacity="0.79"/>
<path d="M104.204 145.088C226.942 120.063 158.792 -16.5315 104.204 -45.206C49.6158 -73.8805 -25.8155 -45.206 -49.2189 38.2106C-72.6224 121.627 -49.2189 176.37 104.204 145.088Z" fill="#D3C6F4"/>
<path d="M1900.11 168.834C2026.58 143.094 1956.36 2.59615 1900.11 -26.8976C1843.86 -56.3913 1766.13 -26.8976 1742.02 58.9024C1717.9 144.702 1742.02 201.009 1900.11 168.834Z" fill="#93BAE8" fill-opacity="0.64"/>
<path d="M1186.16 146.946C1219.78 140.108 1201.11 102.784 1186.16 94.9494C1171.2 87.1143 1150.54 94.9494 1144.13 117.742C1137.72 140.535 1144.13 155.493 1186.16 146.946Z" fill="#D3C6F4"/>
<path d="M448.36 979.309C399.94 1088.26 543.352 1110.8 595.708 1084.3C648.064 1057.81 667.527 983.511 615.863 919.344C564.199 855.177 508.884 843.116 448.36 979.309Z" fill="#92B8E7" fill-opacity="0.64"/>
<path d="M789.326 515.526C767.028 503.934 764.421 530.145 765.904 544.7C773.64 550.911 786.262 561.044 800.194 551.197C814.126 541.35 817.199 530.016 789.326 515.526Z" fill="#D9ECF3"/>
<path d="M756.718 571.186C743.731 564.435 742.213 579.701 743.077 588.178C747.582 591.795 754.933 597.697 763.047 591.962C771.161 586.227 772.951 579.626 756.718 571.186Z" fill="#D9ECF3"/>
<path d="M1307.48 825.933C1309.29 821.7 1321.84 815.602 1327.89 813.082C1321.84 810.562 1309.29 804.464 1307.48 800.23C1305.21 794.939 1259.85 753.361 1254.56 745.801C1249.27 738.241 1198.62 724.634 1197.11 708.003C1192.07 714.555 1185.31 735.218 1198.62 765.456C1200.13 767.976 1202.25 774.83 1198.62 782.087C1194.08 791.159 1157.8 757.141 1135.87 765.456C1153.51 780.827 1188.49 812.175 1187.28 814.594C1186.07 820.037 1152.5 847.604 1135.87 860.707C1157.8 869.023 1194.08 835.005 1198.62 844.076C1202.25 851.333 1200.13 858.188 1198.62 860.707C1185.31 890.946 1192.07 911.609 1197.11 918.161C1198.62 901.529 1249.27 887.922 1254.56 880.362C1259.85 872.803 1305.21 831.225 1307.48 825.933Z" fill="url(#paint3_radial_3_18)" fill-opacity="0.9"/>
<path d="M828.961 717.921C829.874 715.79 836.186 712.721 839.228 711.452C836.186 710.184 829.874 707.114 828.961 704.984C827.82 702.32 805.006 681.392 802.344 677.587C799.682 673.782 774.206 666.933 773.445 658.562C770.91 661.86 767.514 672.26 774.206 687.48C774.966 688.749 776.031 692.199 774.206 695.852C771.924 700.418 753.673 683.295 742.646 687.48C751.518 695.217 769.111 710.996 768.502 712.213C767.894 714.953 751.011 728.829 742.646 735.424C753.673 739.61 771.924 722.487 774.206 727.053C776.031 730.706 774.966 734.156 774.206 735.424C767.514 750.644 770.91 761.045 773.445 764.342C774.206 755.971 799.682 749.122 802.344 745.317C805.006 741.512 827.82 720.584 828.961 717.921Z" fill="url(#paint4_radial_3_18)"/>
<path d="M715.3 762.021C652.594 782.144 618.688 789.903 556.884 869.92C495.081 949.938 625.82 1050.56 799.262 1000.38C1024.53 935.207 1188.58 690.374 960.925 651.267C733.267 612.159 871.92 711.762 715.3 762.021Z" fill="#E5F6F6" fill-opacity="0.74"/>
<path d="M1897.16 850.022C1876.5 920.837 1888.55 1081.16 1897.16 1152.46C1881.17 1158.61 1844.78 1167.22 1827.08 1152.46C1804.95 1134.02 1816.01 850.022 1827.08 831.582C1838.14 813.141 1827.08 702.491 1801.26 610.283C1775.44 518.076 1863.96 296.778 1897.16 337.35C1930.35 377.921 1871.34 521.764 1863.96 610.283C1856.59 698.802 1922.97 761.503 1897.16 850.022Z" fill="#86D9B1"/>
<path d="M2030.94 947.748C2010.28 996.947 2022.33 1108.33 2030.94 1157.87C2014.95 1162.14 1978.55 1168.12 1960.84 1157.87C1938.7 1145.06 1949.77 947.748 1960.84 934.936C1971.9 922.124 1960.84 845.25 1935.01 781.189C1909.18 717.128 1997.73 563.381 2030.94 591.568C2064.15 619.755 2005.11 719.69 1997.73 781.189C1990.35 842.687 2056.77 886.249 2030.94 947.748Z" fill="#86D9B1"/>
<path d="M1554.15 1004.93V1204.1H1642.66C1701.68 1204.1 1631.6 1004.93 1642.66 949.607C1653.73 894.283 1624.22 628.725 1554.15 595.531C1484.07 562.336 1624.22 720.933 1554.15 783.634C1484.07 846.335 1554.15 916.412 1554.15 1004.93Z" fill="#86D9B1"/>
<path d="M1695.19 914.868V1185.66H1781.59C1839.18 1185.66 1770.79 914.868 1781.59 839.649C1792.39 764.43 1763.59 403.376 1695.19 358.244C1626.8 313.112 1763.59 528.741 1695.19 613.99C1626.8 699.239 1695.19 794.517 1695.19 914.868Z" fill="#86D9B1"/>
<path d="M25.1789 926.811C44.4457 992.869 33.2067 1142.42 25.1789 1208.93C40.0878 1214.67 74.0341 1222.69 90.5484 1208.93C111.191 1191.73 100.87 926.811 90.5484 909.61C80.227 892.408 90.5483 789.192 114.632 703.18C138.715 617.168 56.1434 410.738 25.1789 448.584C-5.78546 486.429 49.2624 620.608 56.1434 703.18C63.0243 785.751 1.09554 844.24 25.1789 926.811Z" fill="#ADE7B6" fill-opacity="0.69"/>
<path d="M-99.6178 1017.97C-80.3431 1063.86 -91.5867 1167.76 -99.6178 1213.97C-84.7028 1217.96 -50.7425 1223.54 -34.2213 1213.97C-13.5699 1202.02 -23.8956 1017.97 -34.2213 1006.02C-44.5471 994.069 -34.2214 922.36 -10.1281 862.603C13.9653 802.846 -68.6406 659.429 -99.6178 685.722C-130.595 712.015 -75.5244 805.236 -68.6406 862.603C-61.7568 919.969 -123.711 960.604 -99.6178 1017.97Z" fill="#ADE7B6" fill-opacity="0.69"/>
<path d="M345.144 1071.31V1257.1H262.572C207.524 1257.1 272.894 1071.31 262.572 1019.71C252.251 968.099 279.775 720.383 345.144 689.418C410.513 658.454 279.775 806.395 345.144 864.883C410.513 923.372 345.144 988.741 345.144 1071.31Z" fill="#ADE7B6" fill-opacity="0.69"/>
<path d="M213.574 987.3V1239.9H132.983C79.2563 1239.9 143.057 987.3 132.983 917.135C122.909 846.97 149.773 510.174 213.574 468.074C277.375 425.975 149.773 627.116 213.574 706.638C277.375 786.159 213.574 875.035 213.574 987.3Z" fill="#ADE7B6" fill-opacity="0.69"/>
<path d="M145.578 1006.7C160.451 1057.69 151.775 1173.14 145.578 1224.48C157.087 1228.91 183.292 1235.11 196.04 1224.48C211.975 1211.2 204.007 1006.7 196.04 993.424C188.072 980.145 196.04 900.468 214.631 834.072C233.222 767.675 169.481 608.324 145.578 637.538C121.675 666.753 164.169 770.331 169.481 834.072C174.793 897.812 126.987 942.962 145.578 1006.7Z" fill="#2EBD78" fill-opacity="0.58"/>
<path d="M49.2424 1077.07C64.1213 1112.5 55.4419 1192.7 49.2424 1228.38C60.7559 1231.45 86.9713 1235.76 99.7247 1228.38C115.666 1219.15 107.696 1077.07 99.7247 1067.85C91.7538 1058.62 99.7246 1003.27 118.323 957.137C136.922 911.008 73.155 800.299 49.2424 820.595C25.3298 840.892 67.8411 912.853 73.155 957.137C78.4689 1001.42 30.6437 1032.79 49.2424 1077.07Z" fill="#2EBD78" fill-opacity="0.58"/>
<path d="M392.573 1118.25V1261.67H328.832C286.338 1261.67 336.8 1118.25 328.832 1078.41C320.865 1038.57 342.111 847.351 392.573 823.449C443.034 799.546 342.111 913.748 392.573 958.897C443.034 1004.05 392.573 1054.51 392.573 1118.25Z" fill="#2EBD78" fill-opacity="0.58"/>
<path d="M291.008 1053.4V1248.39H228.797C187.323 1248.39 236.573 1053.4 228.797 999.233C221.021 945.07 241.758 685.082 291.008 652.584C340.259 620.086 241.758 775.355 291.008 836.741C340.259 898.127 291.008 966.734 291.008 1053.4Z" fill="#2EBD78" fill-opacity="0.58"/>
<path d="M1858.01 975.078C1844.32 1022.02 1852.3 1128.28 1858.01 1175.55C1847.41 1179.62 1823.29 1185.33 1811.56 1175.55C1796.89 1163.32 1804.22 975.078 1811.56 962.854C1818.89 950.631 1811.56 877.288 1794.44 816.169C1777.33 755.05 1836 608.365 1858.01 635.257C1880.01 662.149 1840.89 757.495 1836 816.169C1831.11 874.843 1875.12 916.404 1858.01 975.078Z" fill="#C6EECD"/>
<path d="M1946.68 1039.85C1932.99 1072.46 1940.98 1146.29 1946.68 1179.13C1936.09 1181.96 1911.95 1185.92 1900.22 1179.13C1885.54 1170.64 1892.88 1039.85 1900.22 1031.36C1907.55 1022.87 1900.22 971.914 1883.09 929.452C1865.97 886.99 1924.67 785.08 1946.68 803.763C1968.7 822.447 1929.56 888.688 1924.67 929.452C1919.78 970.216 1963.81 999.09 1946.68 1039.85Z" fill="#C6EECD"/>
<path d="M1630.64 1077.76V1209.77H1689.32C1728.43 1209.77 1681.98 1077.76 1689.32 1041.09C1696.65 1004.42 1677.09 828.393 1630.64 806.39C1584.19 784.387 1677.09 889.512 1630.64 931.072C1584.19 972.633 1630.64 1019.08 1630.64 1077.76Z" fill="#C6EECD"/>
<path d="M1724.14 1018.06V1197.55H1781.4C1819.58 1197.55 1774.24 1018.06 1781.4 968.202C1788.56 918.344 1769.47 679.022 1724.14 649.107C1678.8 619.192 1769.47 762.119 1724.14 818.626C1678.8 875.132 1724.14 938.286 1724.14 1018.06Z" fill="#C6EECD"/>
<path d="M939.432 878.243C969.388 882.727 989.358 911.875 995.599 925.888C940.181 967.74 895.124 952.668 879.522 939.9C873.531 946.627 846.446 958.273 833.653 963.255C831.406 956.529 851.439 928.69 861.736 915.611C850.503 910.38 845.822 885.405 844.886 873.572C862.11 880.298 875.153 895.682 879.522 902.532C887.011 892.568 909.477 873.759 939.432 878.243Z" fill="#214FB7" fill-opacity="0.79"/>
<path d="M805.64 824.048C819.874 826.175 829.364 840.001 832.329 846.648C805.996 866.501 784.586 859.352 777.172 853.295C774.325 856.486 761.455 862.01 755.376 864.374C754.308 861.183 763.827 847.977 768.72 841.773C763.383 839.292 761.159 827.445 760.714 821.832C768.898 825.022 775.096 832.32 777.172 835.569C780.73 830.843 791.406 821.921 805.64 824.048Z" fill="#214FB7" fill-opacity="0.57"/>
<path d="M1555.24 890.952C1528.68 853.613 1474.8 843.426 1451.18 843C1489.49 866.017 1470.12 905.019 1455.65 921.642C1437.99 931.019 1396.92 952.843 1373.94 965.119C1345.21 980.464 1290.31 1038.65 1282.65 1053.99C1276.52 1066.27 1239.66 1087.24 1222 1096.19C1344.57 1093.12 1359.47 1044.19 1351.59 1020.1C1367.77 1014.35 1409.3 1002.07 1446.08 999.005C1482.85 995.936 1543.54 1009.24 1569.29 1016.27C1577.46 1033.15 1546.3 1060.81 1529.7 1072.53C1537.15 1074.24 1561.73 1082.53 1594.18 1072.53C1619.08 1064.86 1637.17 1035.88 1637.59 1020.1C1665.17 1023.17 1708.67 1012.43 1726.97 1006.68C1771.02 1004.12 1829.11 998.366 1824.64 987.497C1821.07 978.801 1777.61 975.349 1756.33 974.709C1726.71 912.307 1609.93 892.871 1555.24 890.952Z" fill="url(#paint5_radial_3_18)" fill-opacity="0.9"/>
<path d="M530.464 460.255C536.891 469.964 533.515 491.126 531.024 500.493C498.174 500.95 471.778 533.98 462.686 550.438C450.738 550.021 431.509 561.566 411.414 561.845C390.647 562.134 372.766 610.308 391.04 604.804C405.659 600.401 433.42 603.34 446.829 604.028C459.583 641.472 491.836 635.774 497.333 654.07C502.831 672.367 456.171 701.208 489.497 718.922C524.84 737.709 542.485 675.315 545.275 645.529C568.98 641 595.501 612.751 605.798 599.192C669.732 622.1 689.711 621.939 691.709 618.995C679.616 557.24 620.989 560.485 615.674 555.309C610.359 550.134 607.616 541.423 615.394 535.19C623.172 528.958 653.446 506.664 632.259 491.21C611.072 475.757 599.242 504.793 592.29 507.515C586.727 509.692 576.503 503.36 572.086 499.921C571.989 492.924 571.017 473.339 567.91 450.985C564.026 423.042 514.955 413.225 507.262 425.581C499.57 437.937 522.431 448.118 530.464 460.255Z" fill="#89B2E4" fill-opacity="0.71"/>
<path d="M1071.48 567.343C1120.58 557.345 1093.32 502.769 1071.48 491.313C1049.65 479.856 1019.47 491.313 1010.11 524.641C1000.75 557.97 1010.11 579.842 1071.48 567.343Z" fill="#CBB4F0" fill-opacity="0.71"/>
</g>
<defs>
<filter id="filter0_d_3_18" x="0" y="0" width="1928" height="1088" filterUnits="userSpaceOnUse" color-interpolation-filters="sRGB">
<feFlood flood-opacity="0" result="BackgroundImageFix"/>
<feColorMatrix in="SourceAlpha" type="matrix" values="0 0 0 0 0 0 0 0 0 0 0 0 0 0 0 0 0 0 127 0" result="hardAlpha"/>
<feOffset dy="4"/>
<feGaussianBlur stdDeviation="2"/>
<feComposite in2="hardAlpha" operator="out"/>
<feColorMatrix type="matrix" values="0 0 0 0 0 0 0 0 0 0 0 0 0 0 0 0 0 0 0.25 0"/>
<feBlend mode="normal" in2="BackgroundImageFix" result="effect1_dropShadow_3_18"/>
<feBlend mode="normal" in="SourceGraphic" in2="effect1_dropShadow_3_18" result="shape"/>
</filter>
<linearGradient id="paint0_linear_3_18" x1="960" y1="0" x2="960" y2="1080" gradientUnits="userSpaceOnUse">
<stop stop-color="#D0E5FD"/>
<stop offset="1" stop-color="white"/>
</linearGradient>
<radialGradient id="paint1_radial_3_18" cx="0" cy="0" r="1" gradientUnits="userSpaceOnUse" gradientTransform="translate(759.435 569.669) rotate(72.0853) scale(622.16 847.883)">
<stop stop-color="#3770CA"/>
<stop offset="0.569002" stop-color="#234AAE"/>
<stop offset="1" stop-color="#2C69C5"/>
</radialGradient>
<radialGradient id="paint2_radial_3_18" cx="0" cy="0" r="1" gradientUnits="userSpaceOnUse" gradientTransform="translate(891.71 597.551) rotate(61.3705) scale(466.874 689.956)">
<stop stop-color="#E6F2FB" stop-opacity="0.62"/>
<stop offset="1" stop-color="#4F9DE5"/>
</radialGradient>
<radialGradient id="paint3_radial_3_18" cx="0" cy="0" r="1" gradientUnits="userSpaceOnUse" gradientTransform="translate(1257.18 812.634) rotate(103.48) scale(108.516 99.148)">
<stop stop-color="#2151BD"/>
<stop offset="1" stop-color="#0F2557"/>
</radialGradient>
<radialGradient id="paint4_radial_3_18" cx="0" cy="0" r="1" gradientUnits="userSpaceOnUse" gradientTransform="translate(803.66 711.227) rotate(103.471) scale(54.6184 49.8727)">
<stop stop-color="#2151BD"/>
<stop offset="1" stop-color="#0F2557"/>
</radialGradient>
<radialGradient id="paint5_radial_3_18" cx="0" cy="0" r="1" gradientUnits="userSpaceOnUse" gradientTransform="translate(1504.81 876.886) rotate(70.0048) scale(233.37 555.891)">
<stop stop-color="#A1CFF9"/>
<stop offset="0.482704" stop-color="#3586E5"/>
<stop offset="1" stop-color="#406BDB"/>
</radialGradient>
<clipPath id="clip0_3_18">
<rect width="1920" height="1080" fill="white" transform="translate(4)"/>
</clipPath>
</defs>
</svg>
